<?xml version="1.0" standalone="no"?>
<!DOCTYPE svg PUBLIC "-//W3C//DTD SVG 20010904//EN"
 "http://www.w3.org/TR/2001/REC-SVG-20010904/DTD/svg10.dtd">
<svg version="1.0" xmlns="http://www.w3.org/2000/svg"
 width="132.000000pt" height="132.000000pt" viewBox="0 0 132.000000 132.000000"
 preserveAspectRatio="xMidYMid meet">
<metadata>
Created by potrace 1.16, written by Peter Selinger 2001-2019
</metadata>
<g transform="translate(0.000000,132.000000) scale(0.100000,-0.100000)"
fill="#949494" stroke="none">
<path d="M605 855 c-33 -7 -75 -10 -92 -8 -31 5 -33 4 -33 -25 0 -17 -12 -53
-26 -79 -21 -40 -25 -58 -22 -110 5 -79 42 -137 111 -173 26 -14 45 -30 43
-37 -5 -13 35 -26 57 -17 8 3 18 1 22 -5 3 -6 -1 -14 -9 -17 -20 -8 -21 -24
-1 -24 57 0 173 102 213 188 34 74 34 122 -1 193 -15 31 -27 69 -27 84 0 26
-2 27 -35 22 -20 -3 -48 -2 -63 3 -54 17 -78 18 -137 5z m24 -56 c25 -9 42 -9
71 1 45 15 95 2 129 -34 72 -76 27 -228 -83 -280 -45 -21 -122 -20 -171 3
-131 60 -158 248 -44 304 40 20 56 21 98 6z"/>
<path d="M545 758 c-38 -22 -46 -41 -42 -101 3 -49 8 -62 37 -92 18 -19 49
-40 68 -46 68 -22 167 12 195 68 38 74 28 141 -24 168 -36 19 -53 19 -89 0
-27 -14 -33 -14 -60 0 -34 18 -58 19 -85 3z"/>
</g>
</svg>
