<?xml version="1.0" encoding="utf-8"?>
<!-- Generator: Adobe Illustrator 19.0.0, SVG Export Plug-In . SVG Version: 6.00 Build 0)  -->
<svg fill="#7422dc" version="1.1" id="Layer_1" xmlns="http://www.w3.org/2000/svg" xmlns:xlink="http://www.w3.org/1999/xlink" x="0px" y="0px"
	 viewBox="0 0 64 64" style="enable-background:new 0 0 64 64;" xml:space="preserve">
<style type="text/css">
	.st0{fill:none;enable-background:new    ;}
</style>
<g>
	<path d="M44,19.6c-0.1,0.6-0.2,1.3-0.3,1.9c-0.4,1.9-1.2,3.5-2.7,4.8c-1.1,1-2.5,1.6-3.9,2c-2.6,0.6-5.3,0.8-7.9,0.2
		c-3.8-0.9-6.2-3.3-7.4-7c-0.4-1.2-0.6-2.4-0.5-3.7c0-0.4,0-0.4,0.4-0.5c2.7-0.9,5.5-1.2,8.3-0.9c2.4,0.3,4.7,0.9,6.9,2
		c2.2,1,4.5,1.5,7,1.4C43.8,19.6,43.9,19.6,44,19.6z"/>
	<path d="M23,5c-0.1,0.4-0.2,0.7-0.3,1.1C21.8,9,21,12,20.5,14.9c-0.3,1.9-0.4,3.8,0,5.8c0.4,1.9,1.2,3.6,2.5,5
		c1.3,1.3,2.7,2.4,4.3,3.3c2.2,1.2,4.6,1.5,7,1.2c2.4-0.3,4.6-1.2,6.6-2.7c2-1.5,3.2-3.6,3.6-6c0.3-1.7,0.3-3.5,0.2-5.3
		c-0.3-3.7-1-7.4-2.1-10.9c0-0.1,0-0.1-0.1-0.2c0.2,0,0.5,0,0.7,0c0.1,0,0.1,0.1,0.2,0.2c0.3,1.1,0.6,2.1,0.9,3.2
		c0.6,2.4,1.1,4.8,1.3,7.2c0.2,1.9,0.2,3.9,0,5.8c-0.5,3.4-2.2,6-5.2,7.8c-0.8,0.5-1.6,0.9-2.4,1.4c-1.1,0.8-2.1,1.8-2.9,2.9
		c-0.8,1.1-1.2,2.3-1.3,3.7c-0.2,3.5-0.4,7-0.3,10.5c0.1,2,0.2,3.9,0.6,5.8c0.1,0.3,0.2,0.7,0.3,1c0.5,1.7,1.7,2.8,3.3,3.5
		c0.6,0.3,1.3,0.4,1.9,0.4c0.6,0,1.2,0.1,1.7,0.2c0.4,0.1,0.7,0.2,1.1,0.3c-0.5,0.3-0.9,0.4-1.3,0.4c-1.7,0.1-3.4,0.3-5.1,0.4
		c-2.4,0.1-4.7,0-7.1,0c-1.8,0-3.6-0.1-5.3-0.4c-0.2,0-0.3-0.1-0.5-0.1c-0.1-0.1-0.3-0.1-0.4-0.2c0.1-0.1,0.2-0.2,0.4-0.2
		c0.3-0.1,0.6-0.1,1-0.2c0.7-0.1,1.3-0.2,2-0.2c0.7,0,1.3-0.4,1.9-0.7c1.6-0.8,2.6-2.1,3-3.9c0.5-1.7,0.7-3.4,0.8-5.1
		c0.2-3.9,0.1-7.8-0.3-11.7c-0.1-0.9-0.4-1.7-0.8-2.5c-1-1.8-2.4-3.3-4.2-4.4c-0.9-0.6-1.8-1.1-2.6-1.6c-1.1-0.7-2.1-1.6-2.9-2.6
		c-1.4-1.7-2.1-3.6-2.3-5.8c-0.2-2,0.1-4,0.4-6c0.6-3,1.4-6,2.4-8.9C21.9,5.1,22,5,22.2,5C22.5,5,22.7,5,23,5C22.9,5,22.9,5,23,5z"
		/>
</g>
<path class="st0" d="z"/>
</svg>
