<?xml version="1.0" encoding="utf-8"?>
<!-- Generator: Adobe Illustrator 19.0.0, SVG Export Plug-In . SVG Version: 6.00 Build 0)  -->
<svg  fill="#a3a3a3" version="1.1" id="Layer_1" xmlns="http://www.w3.org/2000/svg" xmlns:xlink="http://www.w3.org/1999/xlink" x="0px" y="0px"
	 viewBox="0 0 64 64" style="enable-background:new 0 0 64 64;" xml:space="preserve">
<g>
	<path d="M20.3,55.9c-0.6-0.3-1.3-0.6-1.9-0.9c-3.9-2-6.5-5.2-8.3-9.1c-1.5-3.3-2.3-6.8-2.7-10.4c-0.2-1.8-0.2-3.7-0.3-5.6
		c0-0.2,0-0.4,0-0.6c14,0,28,0,42.1,0c0.1,2.5-0.1,4.9-0.4,7.4c2-0.9,3.9-0.9,5.7,0.3c1.2,0.7,2,1.7,2.4,3c0.9,2.5-0.2,5.4-2.5,6.8
		c-2,1.2-5.5,1.4-7.9-1.7c-2.1,5-5.4,8.8-10.6,10.9c0.2,0,0.4,0,0.5,0c3.5,0,7,0,10.6,0c0.8,0,1.3,0.4,1.2,1.1c0,0.6-0.4,1-1,1.1
		c-0.2,0-0.3,0-0.5,0c-12.3,0-24.7,0-37,0c-0.2,0-0.3,0-0.5,0c-0.6-0.1-1-0.6-1-1.1c0-0.5,0.4-1,1-1.1c0.2,0,0.4,0,0.6,0
		C13.3,56,16.8,56,20.3,55.9C20.3,55.9,20.3,55.9,20.3,55.9z M9.3,31.5c0,0.3,0,0.5,0,0.8c0.1,1.5,0.2,3,0.4,4.6
		c0.5,3.4,1.3,6.6,3,9.6c2.2,3.9,5.3,6.5,9.6,7.7c2.8,0.8,5.6,0.9,8.5,0.6c2.5-0.3,4.9-1,7.1-2.4c3.3-2.1,5.4-5.1,6.8-8.6
		c1.2-3.1,1.8-6.4,2.1-9.7c0.1-0.9,0.1-1.7,0.1-2.6C34.3,31.5,21.8,31.5,9.3,31.5z M54.9,41.9c0-2-1.6-3.6-3.5-3.6
		c-2,0-3.6,1.6-3.6,3.5c0,2,1.6,3.6,3.5,3.6C53.4,45.5,54.9,43.9,54.9,41.9z"/>
	<path d="M27.7,9.6c-0.3,2-0.7,3.9-1,5.9c-0.2,1.3-0.3,2.6-0.4,3.9c0,0.4,0.2,0.8,0.4,1.1c0.3,0.6,0.3,1.1-0.2,1.5
		c-0.5,0.4-1.1,0.3-1.5-0.1c-0.7-0.8-1-1.7-0.9-2.7c0.1-1.5,0.3-3.1,0.6-4.6c0.2-1.6,0.5-3.2,0.8-4.9c0.1-0.7,0-1.3-0.5-1.9
		c-0.4-0.4-0.2-1.1,0.2-1.4c0.5-0.4,1.1-0.3,1.5,0.1c0.6,0.6,0.9,1.5,0.9,2.3c0,0.3,0,0.6,0,0.9C27.6,9.6,27.6,9.6,27.7,9.6z"/>
	<path d="M22.9,14.3c-0.2,0.6-0.5,1.7-0.8,2.8c-0.1,0.5-0.3,1.1-0.5,1.6c-0.1,0.6-0.1,1.3,0.3,1.8c0.4,0.5,0.3,1.1-0.1,1.5
		c-0.5,0.4-1.1,0.4-1.5-0.1c-1-1-1.1-2.3-0.8-3.6c0.3-1.1,0.6-2.2,0.9-3.2c0.1-0.4,0.3-0.8,0.2-1.3c0-0.4-0.1-0.8-0.4-1.2
		c-0.4-0.6-0.3-1.2,0.2-1.6c0.5-0.4,1.1-0.3,1.6,0.3C22.7,12,22.9,12.8,22.9,14.3z"/>
	<path d="M28.5,19.3c0.2-0.9,0.5-1.9,0.7-2.8c0.2-0.8,0.5-1.7,0.7-2.5c0.1-0.5,0-1-0.3-1.5c-0.4-0.5-0.4-1.2,0.1-1.6
		c0.5-0.4,1.1-0.3,1.6,0.2c1,1.1,1.1,2.3,0.7,3.7c-0.3,1.1-0.7,2.3-1,3.4c-0.2,0.8-0.3,1.6,0.3,2.4c0.4,0.4,0.2,1-0.2,1.4
		c-0.4,0.4-1.1,0.3-1.5-0.1C28.9,21.2,28.6,20.4,28.5,19.3z"/>
</g>
</svg>
