<?xml version="1.0" encoding="utf-8"?>
<!-- Generator: Adobe Illustrator 19.0.0, SVG Export Plug-In . SVG Version: 6.00 Build 0)  -->
<svg  fill="#fff" version="1.1" id="Layer_1" xmlns="http://www.w3.org/2000/svg" xmlns:xlink="http://www.w3.org/1999/xlink" x="0px" y="0px"
	 viewBox="0 0 64 64" style="enable-background:new 0 0 64 64;" xml:space="preserve">
<path id="XMLID_5_" d="M5.1,26.3c0.1-1.2,0.3-2.4,0.4-3.5c0.4-3.5,0.8-7.1,1.2-10.6C6.7,11.4,7.2,11,7.9,11c5.2,0,10.3,0,15.5,0
	c0.8,0,1.2,0.4,1.3,1.3c0.2,1.6,0.4,3.1,0.6,4.7c0,0.2,0.1,0.3,0.1,0.6c0.2-0.1,0.4-0.2,0.6-0.3c3.9-2.5,7.7-5,11.6-7.4
	c0.9-0.6,1.3-0.5,1.9,0.3c2.7,3.3,5.5,6.6,8.2,10c3.8,4.7,3.4,11-1.1,15c-0.1,0.1-0.2,0.1-0.3,0.2c2.8,4.3,5.5,8.5,8.2,12.8
	c1.1-0.7,2.1-1.3,3.1-2c1.1-0.7,1.6-0.5,2.2,0.6c0,0.1,0,0.3,0,0.4c-0.3,0.3-0.5,0.7-0.9,0.9c-2.8,1.8-5.5,3.6-8.3,5.4
	c-0.4,0.3-0.9,0.3-1.3,0.1c-0.4-0.2-0.7-0.6-0.6-1.1c0.1-0.3,0.3-0.7,0.6-0.9c0.9-0.6,1.9-1.2,2.8-1.8c0.1-0.1,0.3-0.2,0.5-0.3
	c-2.7-4.3-5.5-8.5-8.1-12.6c-1.2,0.3-2.3,0.7-3.5,0.9c-4.4,0.6-8.7-1.6-10.7-5.5c-1.4-2.7-2.7-5.4-4-8.1c-0.1-0.1-0.1-0.2-0.3-0.4
	c0.1,0.6,0.1,1.3,0.2,1.9c0.6,5.5-3.3,10.7-8.8,11.7c-0.2,0-0.4,0.1-0.6,0.1c0,5,0,10.1,0,15.2c1.4,0,2.7,0,4.1,0
	c0.9,0,1.4,0.8,1.1,1.6c-0.2,0.6-0.6,0.7-1.2,0.7c-2.8,0-5.6,0-8.4,0c-0.7,0-1.3,0-2,0c-0.7,0-1.1-0.5-1.1-1.1
	c0-0.7,0.4-1.1,1.2-1.1c1.4,0,2.7,0,4.2,0c0-5.1,0-10.1,0-15.1c-0.8-0.2-1.6-0.3-2.4-0.6c-4.1-1.6-6.5-4.6-7-9
	c0-0.2-0.1-0.3-0.1-0.5C5.1,26.9,5.1,26.6,5.1,26.3z M26.7,19.4c0,0.1,0,0.1,0,0.2c1.9,3.9,3.7,7.7,5.7,11.5
	c1.9,3.6,6.4,5.2,10.3,3.8c5.3-2,7.1-8.5,3.6-12.9c-1.8-2.3-3.7-4.6-5.6-6.9c-0.8-1-1.7-2.1-2.6-3.1C34.3,14.5,30.5,16.9,26.7,19.4z
	 M8.8,13.3c0,0.1,0,0.1,0,0.2c-0.5,3.8-1,7.7-1.4,11.5c-0.1,1.2-0.2,2.4,0.1,3.5c0.9,4.4,5.2,7.2,9.6,6.5c4.6-0.8,7.5-4.9,6.9-9.6
	c-0.4-2.9-0.7-5.8-1-8.7c-0.1-1.1-0.3-2.2-0.4-3.4C17.9,13.3,13.4,13.3,8.8,13.3z"/>
</svg>
