<?xml version="1.0" encoding="utf-8"?>
<!-- Generator: Adobe Illustrator 19.0.0, SVG Export Plug-In . SVG Version: 6.00 Build 0)  -->
<svg fill="#7422dc" version="1.1" id="Layer_1" xmlns="http://www.w3.org/2000/svg" xmlns:xlink="http://www.w3.org/1999/xlink" x="0px" y="0px"
	 viewBox="0 0 64 64" style="enable-background:new 0 0 64 64;" xml:space="preserve">
<g id="XMLID_1_">
	<path id="XMLID_56_" d="M23.4,60.3c-1.6-0.1-2.6-0.7-3.2-2c-2.1-4.2-4.1-8.3-6.2-12.5c-2.6-5.2-5.2-10.4-7.8-15.6
		c-1-2-0.4-3.8,1.6-4.8c6.9-3.5,13.8-6.9,20.8-10.4c2-1,3.8-0.4,4.7,1.6c4.7,9.4,9.4,18.8,14.1,28.3c0.9,1.7,0.3,3.6-1.5,4.5
		c-7.1,3.5-14.2,7.1-21.3,10.6C24.1,60.1,23.6,60.2,23.4,60.3z M30.1,16.6c-0.1,0-0.4,0.1-0.7,0.2c-6.9,3.5-13.9,6.9-20.8,10.4
		c-1,0.5-1.2,1.1-0.7,2c4.7,9.3,9.3,18.7,14,28c0.5,1,1.1,1.2,2.1,0.7c3.7-1.8,7.4-3.7,11.1-5.5c3.3-1.6,6.5-3.2,9.8-4.9
		c0.8-0.4,1-1,0.6-1.8c-0.1-0.2-0.2-0.3-0.2-0.5c-3-6.1-6-12.2-9.1-18.2c-1.6-3.2-3.2-6.4-4.8-9.6C31.2,17,30.9,16.6,30.1,16.6z"/>
	<path id="XMLID_55_" d="M47.8,41.2c-0.6-1.2-1.2-2.4-1.8-3.7c-0.1-0.2-0.1-0.4-0.1-0.6c0-7.4,0-14.7,0-22.1c0-1.3-0.4-1.7-1.7-1.7
		c-7.7,0-15.3,0-23,0c-1.2,0-1.6,0.4-1.6,1.7c0,0.6,0,1.3,0,1.9c0,0.4-0.1,0.5-0.4,0.7c-0.5,0.2-1,0.5-1.5,0.7c0-1.5-0.1-3,0-4.5
		c0.2-1.6,1.6-2.6,3.3-2.6c5.4,0,10.8,0,16.2,0c2.4,0,4.9,0,7.3,0c2,0,3.4,1.4,3.4,3.3c0,8.8,0,17.7,0,26.5c0,0.1,0,0.1,0,0.2
		C47.9,41.2,47.8,41.2,47.8,41.2z"/>
	<path id="XMLID_54_" d="M49.9,17.3c0.2,0.1,0.4,0.2,0.6,0.2c2.6,1.3,5.2,2.6,7.7,3.9c1.9,1,2.5,2.8,1.6,4.7
		c-3.2,6.3-6.3,12.7-9.4,19c-0.1,0.2-0.2,0.4-0.4,0.6c0-1.4,0-2.8,0-4.2c0-0.2,0.1-0.4,0.2-0.6c2.6-5.2,5.2-10.3,7.7-15.5
		c0.6-1.2,0.4-1.7-0.7-2.2c-2.3-1.1-4.5-2.3-6.8-3.4c-0.3-0.2-0.5-0.3-0.5-0.7C50,18.5,49.9,17.9,49.9,17.3z"/>
	<path id="XMLID_53_" d="M47.5,50.7c-0.7,1.4-1.3,2.7-2,4c-0.8,1.4-2.5,1.9-3.9,1.3c-0.8-0.3-1.5-0.7-2.4-1.1c0.8-0.4,1.4-0.7,2.1-1
		c0.1-0.1,0.4,0,0.6,0.1c1,0.5,1.6,0.3,2.1-0.7c0.3-0.8,0.8-1.3,1.6-1.6C46.2,51.4,46.8,51.1,47.5,50.7z"/>
	<path id="XMLID_47_" d="M23.6,31.2c0.8-1.9,2.2-3.1,4.2-3.4c2.3-0.4,4.4,0.7,5.5,2.7c1.2,2.1,1.1,4.3,0.4,6.4
		c-0.5,1.4-1.1,2.7-1.6,4.1c-0.5,1.3-0.8,2.6-1.2,3.8c0,0.1-0.1,0.3-0.1,0.5c-2.3-1.4-4.9-1.6-7.4-2.3c-1.2-0.4-2.5-0.9-3.6-1.6
		c-1.9-1.2-3-3-3-5.3c0-3.2,3.2-5.7,6.3-5.1C23.2,31.1,23.4,31.2,23.6,31.2z M29.2,42.5c0.6-1.4,1.2-2.8,1.8-4.2
		c0.3-0.6,0.5-1.2,0.7-1.9c0.4-1.5,0.7-3,0-4.5c-0.7-1.5-2-2.3-3.6-2.1c-1.6,0.2-2.7,1.5-2.8,3.2c0,0.4-0.1,0.9-0.1,1.4
		c-0.5-0.3-1-0.6-1.5-0.9c-1.1-0.6-2.2-0.6-3.3,0.1c-1.1,0.7-1.7,1.7-1.6,3c0.1,1.6,1,2.7,2.3,3.5c0.9,0.5,1.9,0.9,2.9,1.2
		C25.7,41.7,27.5,42.1,29.2,42.5z"/>
</g>
</svg>
