<?xml version="1.0" encoding="utf-8"?><!-- Generator: Adobe Illustrator 19.0.0, SVG Export Plug-In . SVG Version: 6.00 Build 0)  -->
<svg enable-background="new 76 -75 201 201" id="Layer_1" version="1.1" viewBox="76 -75 201 201"
    x="0px" xmlns="http://www.w3.org/2000/svg" y="0px" xml:space="preserve">
<g id="_x23_333333ff">
	<path d="M172.5-75h8c6.1,0.6,12.3,0.5,18.2,2.1c17.5,4.1,33.9,12.8,47,25.1c15.6,14.5,25.9,34.2,30,55
		c0.5,4.5,0.8,9,1.2,13.4v9.8c-0.7,5.9-0.5,11.8-2.1,17.6c-4.6,19.2-14.6,37.4-29.2,50.9c-13.3,12.5-30,21.2-47.7,25.3
		c-5.1,1.4-10.5,1.1-15.8,1.9h-9.8c-6.1-0.6-12.3-0.5-18.3-2.1c-17.4-4.1-33.9-12.8-46.9-25.1C91.8,84.5,81.5,64.9,77.3,44.4
		c-0.6-4.6-0.8-9.3-1.3-13.9v-9c0.3-4.8,0.7-9.5,1.2-14.3c4.1-20.7,14.4-40.5,30-54.9c13.1-12.3,29.5-21,47-25.1
		C160.1-74.5,166.4-74.4,172.5-75 M160.9-68.7c-21.8,3.7-42.3,15-56.7,31.8c-5.6,7.3-11.5,14.7-14.5,23.5
		c-8.6,17.5-10.7,37.9-7.1,57c1.5-0.5,3.1-1,4.6-1.5c0.1-6.8,0-13.7,0-20.5c-1.3-0.1-2.6-0.2-3.9-0.3c0-1.4,0-2.8,0-4.2
		c1.3,0,2.7,0,4,0c0.1-3.4,0.3-6.8,1.8-9.9c2.5-5.5,7.8-8.9,12-13c1.2-1,2.9-3.1,4.5-1.5c3.7,3.3,7.4,6.5,10.9,10
		c3.7,3.9,4.4,9.4,4.9,14.6c1.2,0,2.5,0,3.7,0c0,1.4,0,2.8,0,4.2c-1.3,0-2.6,0-3.9,0c0,6.9,0,13.7,0,20.6c3.3,0.8,6.9,2.4,7.8,6.1
		c1,4.9,0.3,10,0.5,15c1.4,0,2.8,0,4.1,0c0.1-5-0.5-10.1,0.4-15.1c0.9-3.6,4.5-5.2,7.8-6.1c0.3-16.6,0-33.2,0.1-49.7
		c1.4,0,2.9,0,4.3,0c0,16.6,0,33.3,0,49.9c1.3,0.3,2.7,0.7,4,1.1c0.1-6,0.3-12.1-0.1-18.1c-0.3-3.4-0.1-7.1,1.8-10.1
		c1.9-3.8,7.6-5.1,7-10.2c0.9,0,2.8,0,3.7,0c-0.7,4.6,3.9,6.7,6.7,9.3c2.4-2.9,6.5-5,6.4-9.3c1,0,2.9,0,3.9,0c0,1.2,0,2.4,0.1,3.6
		c2.1,2,4.2,3.8,6.3,5.7c2.4-2.9,6.8-4.8,6.4-9.2c1.3,0,2.6,0,3.9,0c-1.1,6.4,7.8,7.6,8.4,13.4c0.3,8.3,0.1,16.7,0.2,25
		c1.4-0.4,2.8-0.7,4.1-1.1c0-16.6,0-33.3,0-49.9c1.4,0,2.8,0,4.2,0c0.1,16.6-0.1,33.2,0.1,49.7c3.3,1,7,2.6,7.8,6.3
		c0.9,5,0.1,10,0.4,15c1.4,0,2.7-0.1,4.1-0.1c0.2-5-0.4-10,0.4-14.9c0.9-3.6,4.5-5.3,7.8-6.2c0-6.9,0-13.8,0-20.7
		c-1.3,0-2.6,0-3.9,0c0-1.4,0-2.7,0-4.1c1.3-0.1,2.7-0.1,4-0.2c-0.1-5.1,1.2-10.5,4.7-14.4c3.4-3.6,7.2-6.8,10.9-10
		c1.6-1.6,3.2,0.6,4.4,1.5c3.5,3.5,7.6,6.4,10.5,10.4c2.6,3.7,3.1,8.3,3.4,12.7c0.9,0,2.7,0,3.6,0c0.1,1.4,0.1,2.9,0.2,4.3
		c-1,0-2.8,0-3.8,0c-0.1,6.8,0,13.7,0,20.6c0.9,0.3,1.8,0.6,2.7,0.9c3.5-18.9,1.4-39.1-7.2-56.4c-2.9-8.6-8.5-15.8-14-22.9
		C228.1-61.5,193.3-74.5,160.9-68.7 M94,7c-2.1,2.9-2.4,6.5-2.3,9.9c8.4,0,16.7,0.1,25.1,0c0-3.7-0.5-7.7-3-10.7
		c-2.8-3.4-6.4-5.9-9.6-8.8C100.7,0.6,96.7,3.2,94,7 M240.8,6.8c-2.1,2.9-2.5,6.6-2.5,10.1c8.4,0.1,16.7,0,25.1,0
		c0.1-3.6-0.3-7.5-2.7-10.5c-2.8-3.4-6.5-6.1-9.8-9C247.4,0.5,243.6,3.1,240.8,6.8 M155.9,16.9c3.3,0.1,6.6,0.1,9.9,0
		c-1.5-1.5-2.8-3.4-4.9-4.1C158.6,13,157.4,15.4,155.9,16.9 M176.3,13.3c-1.7,0.8-2.9,2.3-4.2,3.6c3.6,0.1,7.1,0.1,10.6,0
		C181,15.2,179.1,12.5,176.3,13.3 M189.2,16.9c3.3,0.1,6.7,0.1,10,0c-1.6-1.5-2.8-3.7-5.1-4C192,13.5,190.7,15.5,189.2,16.9
		 M91.7,21.5c0,0.9,0,2.6,0.1,3.5c2.1,1,4.2,2,6.3,2.9c1.9-1,3.7-2.4,5.9-2.5c2.3-0.1,4.3,1.4,6.3,2.4c2.1-0.9,4.3-1.9,6.3-2.9
		c0-1.2,0-2.3,0-3.5C108.3,21.5,100,21.4,91.7,21.5 M154.6,21.4c0,1.9,0,3.9,0,5.8c4.8-2.8,10.9-2,14.6,2.1c2.3-1.8,4.8-3.8,7.9-3.9
		c3.4-0.3,6.3,1.8,8.8,3.9c2.2-1.5,4.4-3.5,7.2-3.8c2.5-0.1,4.9,0.9,7.3,1.6c0-1.9,0-3.8,0-5.7C185.1,21.4,169.8,21.4,154.6,21.4
		 M238.4,21.5c0,0.9,0,2.6,0,3.5c2.1,1,4.2,1.9,6.3,2.9c3.6-3.6,8.5-2,12.6-0.2c2-0.9,3.9-1.8,5.9-2.7c0-0.9,0-2.6,0-3.5
		C254.9,21.5,246.7,21.5,238.4,21.5 M91.9,29.7c-0.1,4.8,0,9.7,0,14.5c1.3,0,2.5,0,3.8,0c0-3.9,0.3-7.9-0.2-11.8
		C95.2,30.7,93.2,30.3,91.9,29.7 M100.6,31.6c-0.8,3.6-0.3,7.4-0.4,11.1c2.7,0,5.3,0,8-0.1c-0.1-3.5,0.3-7.1-0.4-10.6
		C106.6,29.3,102.2,28.9,100.6,31.6 M112.9,32.1c-0.6,4-0.3,8.1-0.2,12.1c1,0,2.9,0,3.8,0c0-4.9,0.1-9.8-0.1-14.6
		C115.3,30.2,113.4,30.5,112.9,32.1 M157,31c-2.3,1.5-2.5,4.4-2.6,6.9c4.2,0,8.5,0,12.7,0c-0.3-1.9-0.1-4-1.4-5.6
		C163.8,29.6,159.6,28.8,157,31 M171.3,37.8c4.1,0.1,8.3,0.1,12.4,0c0.3-3.3-1.1-7.2-4.7-7.9C174.3,28.6,170.4,33.4,171.3,37.8
		 M188.1,37.9c4.2,0.1,8.4,0.1,12.5,0c0.2-3.3-1.1-7.1-4.6-8C191.3,28.4,187,33.4,188.1,37.9 M238.5,29.6c-0.1,4.9,0,9.8-0.1,14.7
		c1,0,3,0,4,0c0-3.8,0.2-7.6-0.2-11.3C242.3,30.9,240,30.3,238.5,29.6 M247.1,32.1c-0.5,3.5-0.2,7.1-0.2,10.6c2.7,0,5.4,0,8,0
		c0-3.5,0.3-7-0.2-10.4C253.6,29,248.4,29,247.1,32.1 M259.7,32c-0.5,4-0.2,8.1-0.2,12.2c0.9,0,2.8,0,3.8,0c0-4.8,0-9.7,0-14.5
		C262,30.3,260.2,30.5,259.7,32 M154.6,42.4c0,6.9-0.1,13.8,0.1,20.6c1.3,0,2.7-0.1,4-0.1c0.2-4.6-0.4-9.3,0.2-14
		c0.4-3,2.7-5.1,5-6.7C160.8,42.5,157.7,42.4,154.6,42.4 M171,42.6c1.7,1.9,3.9,3.8,4.2,6.4c0.6,4.6,0.1,9.4,0.2,14
		c1.4,0,2.8,0,4.1,0c0.1-4.7-0.4-9.3,0.2-14c0.4-2.8,2.6-4.6,4.4-6.6C179.7,42.4,175.3,42.3,171,42.6 M191.2,42.4
		c7.6,4.1,4.6,13.7,5.1,20.7c1.3,0.1,2.7,0.1,4,0.1c0.1-6.9,0-13.8,0-20.7C197.4,42.4,194.3,42.5,191.2,42.4 M83.8,47.9
		c0.9,4.2,2.3,8.2,3.7,12.3c-0.4-4.6-0.1-9.2-0.3-13.7C86.1,47,85,47.5,83.8,47.9 M100.3,49.2c-0.5,4.6-0.2,9.2-0.2,13.8
		c2.7,0,5.5,0,8.2,0c-0.2-4.6,0.4-9.3-0.3-13.9C106.8,45.7,101.3,45.7,100.3,49.2 M121.1,46.4c-0.1,5.5,0,11.1,0,16.7
		c1.3,0,2.7,0,4,0c-0.1-4.7,0.3-9.4-0.2-14C124.3,47.4,122.4,47.1,121.1,46.4 M138,49c-0.4,4.7-0.2,9.4-0.2,14c1.3,0,2.6,0,3.9,0
		c0-5.6,0.1-11.1-0.1-16.7C140.4,47.2,138.4,47.4,138,49 M146.2,46.5c-0.1,5.5,0,11.1,0,16.6c1.3,0,2.7,0,4,0
		c-0.1-4.4,0.2-8.8-0.1-13.1C150.1,47.8,147.9,47.1,146.2,46.5 M163.2,49.1c-0.7,4.6-0.1,9.3-0.3,14c2.8,0,5.5,0,8.3,0
		c-0.1-4.7,0.4-9.4-0.3-14C169.7,45.7,164.3,45.7,163.2,49.1 M184.1,49c-0.6,4.6-0.2,9.4-0.3,14.1c2.7,0,5.5,0,8.2,0
		c-0.1-4.7,0.4-9.4-0.3-14.1C190.5,45.7,185.3,45.7,184.1,49 M205.1,49c-0.4,4.7-0.1,9.4-0.2,14c1.3,0,2.6,0,3.9,0
		c0-5.5,0.1-11.1,0-16.6C207.4,47.1,205.5,47.3,205.1,49 M213.4,63c1.3,0,2.5,0.1,3.8,0.1c-0.1-4.7,0.3-9.4-0.2-14.1
		c-0.5-1.6-2.3-1.8-3.5-2.6C213.3,51.9,213.4,57.5,213.4,63 M230.2,49.1c-0.6,4.6-0.2,9.3-0.3,13.9c1.3,0,2.7,0,4,0
		c0-5.6,0.1-11.1,0-16.6C232.5,47.1,230.7,47.5,230.2,49.1 M247,49c-0.4,4.7-0.1,9.4-0.2,14.1c2.7,0,5.3,0,8,0
		c0-4.7,0.3-9.4-0.2-14.1C253.5,45.7,248.1,45.7,247,49 M268,51.8c1-1.1,1.6-3.4,1.1-5C267,46.6,267.5,50.4,268,51.8 M91.8,48.8
		c0,4.8,0,9.5,0,14.3c1.3,0,2.6,0,3.9,0c0-4.8,0-9.5,0-14.3C94.4,48.8,93.1,48.8,91.8,48.8 M259.3,48.7c0,4.8,0,9.6,0,14.4
		c1.3,0,2.6,0,3.9,0c0-4.8,0-9.6,0-14.4C261.9,48.7,260.6,48.7,259.3,48.7 M112.7,48.7c0,4.8,0,9.6,0,14.4c1,0,2.9,0,3.9,0
		c0-4.8,0-9.6,0-14.4C115.6,48.7,113.7,48.7,112.7,48.7 M238.5,48.7c0,4.8,0,9.6,0,14.4c1,0,2.9,0,3.9,0c0-4.8,0-9.6,0-14.4
		C241.4,48.7,239.5,48.7,238.5,48.7 M90.8,67.6c0.7,1.3,1.3,2.6,2,3.8c10.7,0,21.5,0,32.2,0c0-1,0-2.9,0-3.9
		C113.6,67.6,102.2,67.5,90.8,67.6 M129.4,67.6c0,0.9,0,2.8,0,3.8c32,0,64,0,96.1,0c0-0.9,0-2.8,0-3.8
		C193.5,67.6,161.5,67.6,129.4,67.6 M230,67.6c0,0.9,0,2.8,0,3.8c10.1,0,20.1,0,30.2,0c0.7-1.3,1.3-2.5,2-3.8
		C251.4,67.6,240.7,67.6,230,67.6 M95.2,75.9c4.5,6.1,8.7,12.5,14.2,17.6c4.8,4.5,9.9,8.8,15.5,12.4c0-10,0-20,0-30
		C115.1,75.9,105.2,75.9,95.2,75.9 M129.5,75.9c0.1,10.7-0.1,21.4,0.1,32.2c3.4,2.8,7.9,4.6,12.1,6.1c0.1-7.1,0-14.2,0-21.4
		c-1.3-0.5-3.4-0.2-4-1.8c0.6-3.3,2.6-6.3,4.1-9.3c0.6-1.8,2.6-1.9,4.2-1.9c21,0,42,0,63.1,0c1.3,0.1,3.1-0.1,3.9,1.3
		c1.6,2.8,3.1,5.7,4.3,8.8c0.8,2.5-2.2,2.6-3.8,2.9c0,6.9,0.1,13.9-0.1,20.8c4.1-1.9,8.1-4,12-6c0.2-10.6,0.1-21.1,0.1-31.7
		C193.5,75.9,161.5,75.9,129.5,75.9 M230,75.9c0,9.6,0,19.2,0,28.8c5.1-3.8,10.1-7.7,14.5-12.2c5.1-5,9-11,13.3-16.7
		C248.5,75.9,239.3,75.9,230,75.9 M143.3,88.1c22.8,0.1,45.6,0.1,68.4,0c-0.9-1.5-1.3-4-3.6-3.9c-19.7-0.2-39.4,0-59.1-0.1
		C146.2,83.6,144.1,85.5,143.3,88.1 M146.2,92.6c0,7.8,0,15.5,0,23.3c20.1,7.3,42.6,6.7,62.7-0.6c0-7.6,0-15.1,0-22.7
		C187.9,92.6,167.1,92.6,146.2,92.6z" fill="#333333" />
</g>
</svg>
