<?xml version="1.0" encoding="utf-8"?>
<!-- Generator: Adobe Illustrator 19.0.0, SVG Export Plug-In . SVG Version: 6.00 Build 0)  -->
<svg fill="#fff" version="1.1" id="Layer_1" xmlns="http://www.w3.org/2000/svg" xmlns:xlink="http://www.w3.org/1999/xlink" x="0px" y="0px"
	 viewBox="0 0 64 64" style="enable-background:new 0 0 64 64;" xml:space="preserve">
<g id="XMLID_19_">
	<path id="XMLID_34_" d="M17.9,9.9c0-1,0-1.9,0-2.8c0-0.5,0.2-0.9,0.8-1c0.5-0.1,0.9,0.3,0.9,1c0,0.9,0,1.8,0,2.8
		c8.3,0,16.6,0,24.9,0c0-0.7,0-1.5,0-2.2c0-0.2,0-0.5,0-0.7c0-0.5,0.3-0.9,0.8-0.8c0.6,0,0.8,0.4,0.8,0.9c0,0.9,0,1.8,0,2.8
		c0.3,0,0.5,0,0.7,0c1.4,0,2.9,0,4.3,0c3.8,0,6.5,2.7,6.5,6.5c0,7.9,0,15.9,0,23.8c0,3.7,0,7.4,0,11.1c0,3.8-2.8,6.7-6.7,6.6
		c-12.5,0-24.9,0-37.4-0.1c-0.7,0-1.5,0-2.1-0.1c-3-0.6-5-3.1-5-6.2c0-4.9,0-9.8,0-14.7c0-4,0-8.1,0-12.1c0-2.8,0-5.5,0-8.3
		c0-3.9,2.7-6.6,6.6-6.6C14.6,9.9,16.2,9.9,17.9,9.9z M55.9,24.6c-0.3,0-0.6,0-0.8,0c-15.5,0-30.9,0-46.4,0c-0.6,0-0.8,0.1-0.8,0.8
		C8,34,8,42.6,8,51.2c0,3.2,1.9,5.1,5.1,5.1c12.6,0,25.2,0,37.7,0.1c2.6,0,5.1-2,5.1-5.1c-0.1-8.6,0-17.2,0-25.8
		C55.9,25.2,55.9,25,55.9,24.6z M44.4,11.5c-8.4,0-16.6,0-24.9,0c0,1,0,1.9,0,2.9c0,0.8-0.7,1.2-1.2,0.7c-0.2-0.2-0.3-0.6-0.4-0.9
		c0-0.9,0-1.8,0-2.8c-1.7,0-3.4,0-5,0c-2.8,0-4.8,2-4.9,4.8c0,2,0,4.1,0,6.1c0,0.2,0,0.4,0,0.5c16,0,31.9,0,47.9,0
		c0-2.5,0.1-5,0-7.4c-0.1-2.2-2.2-4-4.5-4c-1.3,0-2.5,0-3.8,0c-0.5,0-1,0-1.5,0c0,1,0,1.9,0,2.9c0,0.3-0.2,0.7-0.5,0.9
		c-0.5,0.3-1.1-0.1-1.1-0.8C44.4,13.5,44.4,12.5,44.4,11.5z"/>
	<path id="XMLID_14_" d="M47.2,41c1.4-0.9,2.7-1.8,4.1-2.6c0.2-0.1,0.4-0.3,0.6-0.4c0.4-0.2,0.8-0.1,1.1,0.3
		c0.3,0.4,0.2,0.8-0.2,1.1c-0.5,0.4-1.1,0.7-1.6,1.1c-1.2,0.8-2.4,1.6-3.7,2.4c-0.8,0.5-1.2,0.3-1.5-0.5c-0.1-0.5-0.3-1-0.4-1.4
		c-0.1-0.5,0-0.9,0.5-1.1c0.5-0.2,0.9,0.1,1.1,0.6C47,40.5,47.1,40.7,47.2,41z"/>
	<path id="XMLID_13_" d="M30.3,33.9c0-1.1,0-2.2,0-3.3c1.1,0,2.2,0,3.4,0c0,1.1,0,2.2,0,3.3C32.5,33.9,31.4,33.9,30.3,33.9z"/>
	<path id="XMLID_12_" d="M33.7,38.8c0,1.1,0,2.2,0,3.3c-1.1,0-2.2,0-3.4,0c0-1.1,0-2.2,0-3.3C31.4,38.8,32.5,38.8,33.7,38.8z"/>
	<path id="XMLID_11_" d="M33.7,47c0,1.1,0,2.2,0,3.3c-1.1,0-2.2,0-3.4,0c0-1.1,0-2.2,0-3.3C31.4,47,32.5,47,33.7,47z"/>
	<path id="XMLID_10_" d="M21.6,30.5c1.1,0,2.2,0,3.3,0c0,1.1,0,2.2,0,3.3c-1.1,0-2.2,0-3.3,0C21.6,32.8,21.6,31.7,21.6,30.5z"/>
	<path id="XMLID_9_" d="M39.1,30.5c1.1,0,2.2,0,3.3,0c0,1.1,0,2.2,0,3.3c-1.1,0-2.2,0-3.3,0C39.1,32.8,39.1,31.7,39.1,30.5z"/>
	<path id="XMLID_8_" d="M47.8,30.5c1.1,0,2.2,0,3.3,0c0,1.1,0,2.2,0,3.3c-1.1,0-2.2,0-3.3,0C47.8,32.8,47.8,31.7,47.8,30.5z"/>
	<path id="XMLID_7_" d="M12.8,42.1c0-1.1,0-2.2,0-3.3c1.1,0,2.2,0,3.3,0c0,1.1,0,2.2,0,3.3C15,42.1,14,42.1,12.8,42.1z"/>
	<path id="XMLID_6_" d="M21.6,38.8c1.1,0,2.2,0,3.3,0c0,1.1,0,2.2,0,3.3c-1.1,0-2.2,0-3.3,0C21.6,41,21.6,39.9,21.6,38.8z"/>
	<path id="XMLID_5_" d="M42.4,38.8c0,1.1,0,2.2,0,3.3c-1.1,0-2.2,0-3.3,0c0-1.1,0-2.2,0-3.3C40.2,38.8,41.3,38.8,42.4,38.8z"/>
	<path id="XMLID_4_" d="M12.9,47c1.1,0,2.2,0,3.3,0c0,1.1,0,2.2,0,3.3c-1.1,0-2.2,0-3.3,0C12.9,49.3,12.9,48.2,12.9,47z"/>
	<path id="XMLID_3_" d="M24.9,50.4c-1.1,0-2.2,0-3.3,0c0-1.1,0-2.2,0-3.3c1.1,0,2.2,0,3.3,0C24.9,48.1,24.9,49.2,24.9,50.4z"/>
	<path id="XMLID_2_" d="M42.4,47c0,1.1,0,2.2,0,3.3c-1.1,0-2.2,0-3.3,0c0-1.1,0-2.2,0-3.3C40.1,47,41.2,47,42.4,47z"/>
	<path id="XMLID_1_" d="M47.8,50.3c0-1.1,0-2.2,0-3.3c1.1,0,2.2,0,3.3,0c0,1.1,0,2.2,0,3.3C50,50.3,49,50.3,47.8,50.3z"/>
</g>
</svg>
