<?xml version="1.0" encoding="utf-8"?>
<!-- Generator: Adobe Illustrator 19.0.0, SVG Export Plug-In . SVG Version: 6.00 Build 0)  -->
<svg  fill="#a3a3a3" version="1.1" id="Layer_1" xmlns="http://www.w3.org/2000/svg" xmlns:xlink="http://www.w3.org/1999/xlink" x="0px" y="0px"
	 viewBox="0 0 64 64" style="enable-background:new 0 0 64 64;" xml:space="preserve">
<path id="XMLID_2_" d="M5.4,50.2c-0.7-0.7-1.3-1.4-1.9-2c7.6-7.6,15.2-15.2,22.8-22.8c3.3,3.3,6.7,6.8,10,10.1
	c5.6-5.6,11.1-11.1,16.7-16.7c-1.2-1.2-2.6-2.5-4.1-4c4-0.4,7.7-0.7,11.5-1c-0.3,3.8-0.7,7.5-1,11.4c-1.4-1.5-2.7-2.9-4-4.2
	c-6.4,6.4-12.6,12.6-18.9,18.9c-3.5-3.5-6.9-7-10.4-10.5C19.2,36.4,12.3,43.3,5.4,50.2z"/>
</svg>
