<?xml version="1.0" encoding="utf-8"?>
<!-- Generator: Adobe Illustrator 19.0.0, SVG Export Plug-In . SVG Version: 6.00 Build 0)  -->
<svg fill="#84a8fe" version="1.1" id="Layer_1" xmlns="http://www.w3.org/2000/svg" xmlns:xlink="http://www.w3.org/1999/xlink" x="0px" y="0px"
	 viewBox="0 0 64 64" style="enable-background:new 0 0 64 64;" xml:space="preserve">
<path id="XMLID_51_" d="M32.6,62.2c-0.2,0-0.4,0-0.6,0c-1.2-0.6-2.4-1.2-3.7-1.9c1.7-1.3,3.2-2.5,4.6-3.5c-1.9,0-3.9,0.1-5.8,0
	c-1.9-0.1-3.8-0.6-5.7-1.5c1.1-0.8,2.1-1.5,3.1-2.2c-1.6-0.7-3-1.2-4.4-1.9C6.2,44.4,1.3,27.6,9.3,14.8c2.3-2.2,2.5-5,2.3-7.9
	c-0.1-0.9,0-1.9,0-2.8c2.6,0,5.1,0,7.8,0c-0.5,0.4-0.8,0.6-1.1,0.9c-0.3,0.3-0.6,0.6-0.9,0.9C27.3,1.2,37.2,1.3,47,6
	c0-0.1,0.1-0.2,0.1-0.3c-0.6-0.5-1.2-1-1.9-1.7c2.6,0,5,0,7.5,0c0,0.4,0,0.7,0,1c0,1.9,0,3.9,0,5.8c0,0.5,0.2,1.1,0.6,1.6
	c5.6,7.4,7.1,15.5,4,24.3c-3.1,9-9.1,15.8-16.9,21.1C38.1,59.5,35.3,60.7,32.6,62.2z M54.7,25.3c-0.1-0.9-0.1-1.8-0.2-2.6
	c-0.2-1-0.4-2-0.7-2.9c-2.6-7.5-11.3-12.2-19.1-8c-1.8,1-3.2,1-4.9,0c-2.1-1.3-4.5-1.8-7-1.5c-7.4,0.8-12.9,6.7-13,14.2
	c-0.1,5.5,1.5,10.5,4.8,14.9c6.4,8.6,16.7,10.4,24.5,7.9C48.4,44.1,54.6,35.1,54.7,25.3z"/>
<path id="XMLID_42_" d="M32.2,16.9c0.9-0.6,1.8-1.2,2.6-1.8c6.4-4.2,16.1-0.2,16.6,8.1c0.4,7.1-1.7,13.3-7.8,17.4
	c-12.9,8.6-25,1.3-29-7.9c-1.6-3.6-2-7.4-1.1-11.2C15.2,14.1,24,11,30.3,15.6C31,16,31.5,16.5,32.2,16.9z M18.6,19.8
	c-0.9,5.3,2.9,10.5,9.7,10.1c0.2,0,0.5-0.4,0.5-0.6C29,23,24.5,18.8,18.6,19.8z M35.8,29.8c7.3,1,10.9-5.3,10-10.2
	C38.8,19.2,34.6,24.6,35.8,29.8z M29.5,31.2c0.3,2.3,0.9,4.3,3.1,5.5c1.8-1.4,2.3-3.3,2.5-5.5C33.1,31.2,31.3,31.2,29.5,31.2z"/>
</svg>
