<?xml version="1.0" encoding="utf-8"?>
<!-- Generator: Adobe Illustrator 19.0.0, SVG Export Plug-In . SVG Version: 6.00 Build 0)  -->
<svg fill="#a3a3a3" version="1.1" id="Layer_1" xmlns="http://www.w3.org/2000/svg" xmlns:xlink="http://www.w3.org/1999/xlink" x="0px" y="0px"
	 viewBox="0 0 64 64" style="enable-background:new 0 0 64 64;" xml:space="preserve">
<path id="XMLID_24_" d="M3.7,32.6c0-7,0-14.1,0-21.1c0-3.5,2.2-6.3,5.6-7.1c0.6-0.1,1.2-0.2,1.7-0.2c8,0,16,0,24.1,0
	c3.9,0,7,2.8,7.1,6.7c0.1,2.8,0,5.6,0,8.4c0,0.7-0.4,1.1-1,1.1c-0.6,0-1-0.4-1-1.1c0-2.6,0-5.1,0-7.7c0-3.2-2.2-5.4-5.4-5.4
	c-8,0-16,0-24,0c-2.7,0-4.7,1.7-5.2,4.3c-0.1,0.4-0.1,0.7-0.1,1.1c0,14,0,28.1,0,42.1c0,3.1,2.2,5.3,5.3,5.3c7.9,0,15.9,0,23.8,0
	c3.3,0,5.4-2.1,5.5-5.5c0-2.5,0-5.1,0-7.6c0-0.7,0.3-1.1,0.9-1.2c0.6-0.1,1.1,0.4,1.1,1.1c0,1.2,0,2.4,0,3.6c0,1.6,0.1,3.2,0,4.8
	C42,58.2,39,61,35,61.1c-6.7,0-13.3,0-20,0c-1.7,0-3.4,0.1-5.1-0.1c-3.7-0.4-6.2-3.4-6.2-7.1C3.7,46.8,3.7,39.7,3.7,32.6z"/>
<path id="XMLID_23_" d="M57.9,31.6c-2.1-2.1-4.1-4.1-6.1-6.1c-1.2-1.2-2.4-2.4-3.6-3.6c-0.4-0.4-0.5-0.8-0.2-1.3
	c0.2-0.4,0.6-0.6,1.1-0.5c0.2,0.1,0.4,0.2,0.6,0.4c3.4,3.3,6.7,6.7,10.1,10c1.1,1.2,1.2,2.9,0,4C56.4,38,53,41.4,49.6,44.7
	c-0.5,0.5-1.1,0.5-1.5,0.1c-0.4-0.4-0.4-1,0.1-1.5c3-3,6.1-6.1,9.1-9.1c0.1-0.1,0.3-0.2,0.5-0.4c0-0.1-0.1-0.1-0.1-0.2
	c-0.2,0-0.4,0-0.5,0c-10.3,0-20.6,0-30.9,0c-0.2,0-0.4,0-0.6,0c-0.5-0.1-0.8-0.4-0.8-1c0-0.5,0.3-0.9,0.8-1c0.2,0,0.5,0,0.7,0
	c10.2,0,20.5,0,30.7,0C57.4,31.6,57.5,31.6,57.9,31.6z"/>
</svg>
