<?xml version="1.0" encoding="utf-8"?>
<!-- Generator: Adobe Illustrator 19.0.0, SVG Export Plug-In . SVG Version: 6.00 Build 0)  -->
<svg fill="#7422dc" version="1.1" id="Layer_1" xmlns="http://www.w3.org/2000/svg" xmlns:xlink="http://www.w3.org/1999/xlink" x="0px" y="0px"
	 viewBox="0 0 64 64" style="enable-background:new 0 0 64 64;" xml:space="preserve">
<g>
	<path d="M4.4,30.4c0.9-0.6,1.6-0.1,2.2,0.5c6.4,6.4,12.8,12.8,19.1,19.2c0.7,0.7,1.4,1,2.4,1c9.8,0,19.6,0,29.4,0
		c0.5,0,1.1,0,1.7,0c0,1.5,0,3,0,4.6c-0.5,0-1,0-1.5,0c-16.5,0-33.1,0-49.6,0c-0.7,0-1.5,0.5-2.3,0.6c-0.5,0.1-1-0.1-1.5-0.1
		c0-0.4,0-0.7,0-1.1c0.2-0.2,0.5-0.4,0.7-0.6c3.5-3.5,7-7,10.5-10.5c0.2-0.2,0.5-0.5,0.8-0.9c-2.2-2.2-4.4-4.4-6.6-6.5
		c-1.8-1.8-3.6-3.5-5.4-5.2C4.4,31.1,4.4,30.7,4.4,30.4z M23.7,51c-2-2-4.1-4.1-5.9-5.9c-1.9,1.9-3.9,4-5.8,5.9
		C15.7,51,19.7,51,23.7,51z M8.8,53.3c0,0.1,0.1,0.3,0.1,0.4c0.1,0,0.2,0.1,0.3,0.1c15.8,0,31.6,0,47.4,0c0.3,0,0.6-0.3,0.9-0.5
		c-0.3-0.1-0.7-0.4-1-0.4c-15.4,0-30.9,0-46.3,0C9.7,52.9,9.3,53.2,8.8,53.3z"/>
	<path d="M27.8,39.5c-0.2-0.5-0.5-1-0.7-1.4c-3.3-6.6-6.7-13.1-10-19.7c-0.5-1.1-1.2-1.7-2.5-1.3c-1.1,0.3-1.4,1.2-1.2,2.7
		c0.1,0.4-0.2,0.8-0.3,1.2c-0.4-0.1-1-0.1-1.3-0.4c-0.8-0.8-1.6-1-2.6-0.5c-0.9,0.5-1.2,1.4-0.9,2.5c0.1,0.4-0.3,0.9-0.5,1.4
		c-0.4-0.3-1-0.4-1.2-0.8C4.1,18.7,5.2,12.6,9.3,8.8c5.5-5.2,14.1-4.6,18.4,1.3c0.2,0.3,0.5,0.6,0.6,0.9c0.1,0.4-0.1,0.9-0.2,1.3
		c-0.4-0.1-1,0-1.2-0.2c-0.8-0.9-1.7-1.2-2.7-0.6c-1,0.6-1.2,1.5-0.8,2.6c0.1,0.3-0.1,1-0.4,1.1c-0.3,0.1-0.9,0-1.2-0.3
		C20.9,14,20,13.8,19,14.5c-1.1,0.8-0.9,1.8-0.4,2.8c3.2,6.3,6.4,12.6,9.6,18.9c0.9,1.8,1.9,3.6,2.8,5.5c0.4,0.9,0.9,1.2,1.9,1.2
		c7.2,0,14.4,0,21.6,0c0.4,0,0.7,0,1.1,0c2.3,0.1,3.9,1.7,3.9,3.8c-0.1,2.1-1.7,3.6-3.9,3.6c-8.5,0-17,0-25.4,0
		c-1.6,0-2.9-0.5-4.1-1.7c-4.8-4.9-9.7-9.7-14.6-14.6c-1.1-1.1-1.7-2.3-1.4-3.8c0.7-2.9,4.1-3.8,6.3-1.6c3,2.9,5.9,5.9,8.9,8.8
		c0.8,0.8,1.5,1.7,2.3,2.5C27.6,39.7,27.7,39.6,27.8,39.5z M42.6,48.3c4.3,0,8.6,0,12.9,0c1.3,0,2-0.7,2-1.8c0-1.1-0.7-1.8-2-1.8
		c-0.3,0-0.6,0-1,0c-7.7,0-15.5,0-23.2,0c-1.1,0-1.8-0.3-2.5-1.1c-4.4-4.4-8.8-8.8-13.2-13.2c-0.2-0.2-0.4-0.4-0.6-0.6
		c-1-0.9-2-1-2.8-0.2c-0.7,0.7-0.6,1.9,0.3,2.8c0.2,0.2,0.3,0.3,0.5,0.5c4.6,4.6,9.3,9.2,13.9,13.9c1,1,2.1,1.5,3.5,1.5
		C34.5,48.3,38.6,48.3,42.6,48.3z M20.9,12.2c1.2-1.2,2.3-2.1,3.3-3.1C20.9,6.4,15.9,6.3,11.9,9c-3.5,2.4-5.5,6.9-4.5,9.7
		c1.3-0.3,2.7-0.7,4.2-1.1c1.1-2.2,2.2-2.7,4.8-2.5C17.2,12.9,18.9,11.9,20.9,12.2z"/>
	<path d="M39,9.5c1.5-0.6,2.7-1.1,3.9-1.6c0-0.4-0.1-1,0-1.5C43,6,43.5,5.6,43.7,5.3c0.3,0.3,0.8,0.6,1,1.1c0.2,0.4,0,1,0,1.5
		c1.2,0.5,2.4,1,4,1.7c0.2-0.3,0.4-0.9,0.9-1.2c0.3-0.2,0.9-0.1,1.3-0.1c0,0.5,0.1,1-0.1,1.3c-0.2,0.5-0.7,0.8-1.1,1.2
		c0.5,1.3,1,2.4,1.5,3.7c0.5,0,1.1-0.1,1.7,0c0.3,0.1,0.8,0.5,0.8,0.9c0.1,0.2-0.5,0.9-0.7,0.8c-2-0.4-2.4,1.1-2.8,2.5
		c-0.1,0.4-0.4,0.7-0.7,1.2c0.4,0.4,0.9,0.8,1.2,1.4c0.2,0.3,0.2,1,0,1.2c-0.2,0.2-0.9,0.2-1.2,0c-0.5-0.3-0.9-0.8-1.3-1.2
		c-1.1,0.4-2.1,0.8-3.1,1.2c-0.3,0.1-0.5,0.7-0.6,1c-0.1,0.7,0.2,1.8-0.9,1.8c-1.2,0-0.9-1.1-0.9-1.9c0-0.2,0-0.5,0-0.7
		c-1.2-0.5-2.4-1-3.6-1.5c-0.4,0.4-0.8,0.8-1.3,1.1c-0.3,0.2-0.8,0.1-1.2,0.1c0-0.4-0.2-1,0-1.3c0.3-0.5,0.8-0.9,1.1-1.2
		c-0.5-1.2-1-2.4-1.5-3.7c-0.4,0-1,0.1-1.5,0c-0.4-0.1-0.7-0.6-1.1-1c0.4-0.3,0.7-0.7,1.1-0.8c0.5-0.1,1,0,1.5,0
		c0.5-1.2,1-2.4,1.5-3.7c-0.3-0.3-0.8-0.7-1.2-1.3c-0.2-0.3-0.2-1,0-1.2C37,8,37.7,8,37.9,8.2C38.4,8.6,38.7,9.1,39,9.5z M49.3,15.3
		c0-3-2.5-5.5-5.5-5.5c-3,0-5.5,2.6-5.5,5.6c0,3,2.5,5.4,5.6,5.4C46.9,20.8,49.3,18.3,49.3,15.3z"/>
</g>
</svg>
