<?xml version="1.0"?>
<svg xmlns="http://www.w3.org/2000/svg" xmlns:xlink="http://www.w3.org/1999/xlink" xmlns:svgjs="http://svgjs.com/svgjs" version="1.1" width="512" height="512" x="0" y="0" viewBox="0 0 512 512" style="enable-background:new 0 0 512 512" xml:space="preserve" class=""><g><path xmlns="http://www.w3.org/2000/svg" d="m34.132812 512h443.734376c18.84375-.019531 34.113281-15.289062 34.132812-34.132812v-443.734376c-.019531-18.84375-15.289062-34.1132808-34.132812-34.132812h-443.734376c-18.84375.0195312-34.1132808 15.289062-34.132812 34.132812v443.734376c.0195312 18.84375 15.289062 34.113281 34.132812 34.132812zm-17.066406-477.867188c.011719-9.421874 7.644532-17.054687 17.066406-17.066406h443.734376c9.421874.011719 17.054687 7.644532 17.066406 17.066406v443.734376c-.011719 9.421874-7.644532 17.054687-17.066406 17.066406h-443.734376c-9.421874-.011719-17.054687-7.644532-17.066406-17.066406zm0 0" fill="#bababa" data-original="#000000" style="" class=""/><path xmlns="http://www.w3.org/2000/svg" d="m51.199219 469.332031h409.601562c4.710938 0 8.53125-3.820312 8.53125-8.53125v-409.601562c0-4.710938-3.820312-8.53125-8.53125-8.53125h-409.601562c-4.710938 0-8.53125 3.820312-8.53125 8.53125v409.601562c0 4.710938 3.820312 8.53125 8.53125 8.53125zm8.535156-409.597656h392.53125v392.53125h-392.53125zm0 0" fill="#bababa" data-original="#000000" style="" class=""/><path xmlns="http://www.w3.org/2000/svg" d="m392.535156 102.398438h-136.535156c-18.84375.019531-34.113281 15.292968-34.132812 34.136718v81.3125c-10.824219 9.734375-17.023438 23.59375-17.066407 38.152344 0 1.746094.089844 3.476562.261719 5.191406l.039062.285156c.050782.464844.144532.917969.207032 1.378907.179687 1.34375.386718 2.675781.667968 3.988281.109376.503906.25.996094.375 1.496094.3125 1.261718.652344 2.511718 1.058594 3.738281.164063.503906.351563.996094.535156 1.496094.433594 1.195312.90625 2.367187 1.429688 3.519531.230469.507812.46875 1.007812.714844 1.503906.542968 1.101563 1.128906 2.179688 1.75 3.242188.300781.511718.601562 1.023437.921875 1.53125.632812.996094 1.3125 1.964844 2.015625 2.914062.382812.511719.746094 1.039063 1.148437 1.539063.734375.921875 1.527344 1.804687 2.335938 2.683593.421875.460938.820312.941407 1.257812 1.386719.117188.117188.21875.25.34375.371094 1.074219 1.070313 2.203125 2.070313 3.355469 3.035156.078125.0625.140625.136719.21875.199219l.023438.019531c1.457031 1.203125 2.980468 2.324219 4.5625 3.359375l.097656.054688c1.503906.976562 3.0625 1.875 4.664062 2.6875.203125.101562.410156.1875.613282.289062 1.445312.710938 2.917968 1.355469 4.421874 1.929688.253907.09375.511719.179687.765626.273437 1.464843.527344 2.945312.988281 4.453124 1.382813.300782.078125.597657.152344.898438.226562.574219.136719 1.132812.304688 1.707031.425782l.054688.011718c.886719.179688 1.792969.289063 2.6875.429688.351562.050781.699219.109375 1.046875.152344.277344.035156.550781.089843.828125.121093.179687.023438.359375.0625.542969.082031.988281.097657 1.996093.113282 2.996093.15625.410157.015626.816407.050782 1.226563.058594.320312.007813.632812.046875.957031.046875h.015625c1.039062 0 2.058594-.09375 3.082031-.15625.546875-.03125 1.089844-.035156 1.636719-.085937 1.066406-.097656 2.109375-.265625 3.152344-.425782.746094-.109374 1.492187-.160156 2.238281-.304687.316406-.0625.609375-.1875.925781-.257813 1.226563-.273437 2.371094-.570312 3.394532-.875.414062-.121093.824218-.234374 1.230468-.367187.171875-.046875.332032-.113281.5-.164063.609375-.203124 1.226563-.382812 1.828125-.605468.136719-.050782.273438-.085938.410157-.136719.117187-.042969.835937-.3125.953124-.359375 1.039063-.4375 1.945313-.945312 2.917969-1.414062.808594-.390626 1.636719-.738282 2.421875-1.171876.078125-.046874.171875-.078124.25-.121093 1.132813-.664063 2.183594-1.324219 2.988282-1.847657.140624-.085937.253906-.203124.394531-.289062.28125-.1875.546875-.382812.824219-.574219.863281-.605469 1.707031-1.226562 2.527343-1.878906.320313-.257813.691407-.46875 1.003907-.734375 1.199218-1 2.382812-2.003906 3.480468-3.105469.207032-.203125.402344-.421875.585938-.648437.949218-.945313 1.824218-1.964844 2.816406-3.152344.308594-.375.648438-.84375.960938-1.25.242187-.308594.480468-.609375.714843-.925781.316407-.417969.601563-.769531.9375-1.222657.824219-1.191406 1.574219-2.433593 2.246094-3.71875.242187-.425781.511719-.824218.742187-1.25.402344-.757812.808594-1.574218 1.214844-2.398437l.589844-1.207031.097656-.210938c.179688-.347656.332032-.710937.453125-1.085937l.445313-1.269531c.089844-.242188.171875-.484376.257812-.730469l.410156-1.175781c.066407-.203126.105469-.417969.171876-.621094.183593-.582032.320312-1.183594.484374-1.777344.304688-1.0625.644532-2.105469.878907-3.21875.050781-.21875.085937-.460938.117187-.703125.152344-.863281.222656-1.652344.335938-2.472656.113281-.824219.257812-1.628907.335937-2.457031.019531-.207032.023438-.40625.039063-.609376.054687-.636718.066406-1.265624.09375-1.898437.035156-.769531.113281-1.566406.113281-2.316406 0-.574219-.074219-1.136719-.09375-1.707031-.027344-.890626-.070313-1.773438-.144531-2.65625-.089844-1.050782-.234375-2.089844-.390625-3.132813-.15625-1.039063-.289063-2.085937-.503907-3.113281-.085937-.390625-.210937-.769532-.304687-1.152344-.714844-3.082031-1.722656-6.089844-3.003906-8.984375l-.078125-.195313c-.609375-1.359374-1.308594-2.675781-2.035156-3.980468-.234376-.417969-.464844-.835938-.710938-1.25-.683594-1.148438-1.410156-2.269532-2.191406-3.367188-.433594-.617187-.898438-1.210937-1.363282-1.808594-.699218-.898437-1.386718-1.800781-2.148437-2.65625-1.152344-1.296874-2.371094-2.535156-3.648437-3.707031-.160157-.148437-.292969-.320312-.457032-.464843v-47.167969h51.199219v170.664062h-170.660156v-170.664062h25.597656c4.714844 0 8.535156-3.820313 8.535156-8.535157v-42.667968c-.011719-9.417969-7.644531-17.054688-17.066406-17.066406h-68.269531c-9.417969.011718-17.054688 7.648437-17.066406 17.066406v273.070312c.011718 9.417969 7.648437 17.054688 17.066406 17.066406h273.070312c9.417969-.011718 17.054688-7.648437 17.066406-17.066406v-273.070312c-.011718-9.417969-7.648437-17.054688-17.066406-17.066406zm0 290.136718h-273.070312v-273.070312h68.269531v34.136718h-25.601563c-4.710937 0-8.53125 3.820313-8.53125 8.53125v187.734376c0 4.710937 3.820313 8.53125 8.53125 8.53125h187.734376c4.710937 0 8.53125-3.820313 8.53125-8.53125v-187.734376c0-4.710937-3.820313-8.53125-8.53125-8.53125h-68.265626c-4.714843 0-8.535156 3.820313-8.535156 8.53125v59.734376c0 2.679687 1.257813 5.207031 3.398438 6.820312 1.949218 1.492188 3.730468 3.191406 5.3125 5.066406.222656.257813.453125.507813.664062.769532 1.535156 1.882812 2.867188 3.921874 3.972656 6.082031.074219.148437.132813.304687.203126.453125 1.105468 2.238281 1.964843 4.589844 2.5625 7.015625l.023437.082031c.523437 2.3125.804687 4.675781.835937 7.046875.011719.523437.027344 1.042969.015626 1.570313-.089844 3.925781-.863282 7.804687-2.285157 11.464843l-.972656 2.226563c-.695313 1.539062-1.5 3.023437-2.414063 4.445312l-.15625.246094c-3.683593 5.410156-8.839843 9.660156-14.855468 12.238281l-.164063.070313c-2.601562 1.050781-5.324219 1.773437-8.105469 2.152344-1.832031.296874-3.683593.453124-5.535156.46875-.976562-.011719-1.90625-.195313-2.863281-.289063-1.402344-.097656-2.800781-.285156-4.179687-.558594-.292969-.066406-.570313-.183593-.859376-.253906-.78125-.199219-1.53125-.464844-2.289062-.714844-1.226562-.375-2.425781-.824219-3.597656-1.339843-.960938-.445313-1.867188-.980469-2.777344-1.507813-1.191406-.683594-2.335938-1.433594-3.433594-2.25-.800781-.605469-1.574218-1.242187-2.316406-1.914063-1.027344-.933593-2-1.933593-2.90625-2.984374-.652344-.75-1.308594-1.492188-1.894531-2.296876-.804688-1.148437-1.539063-2.34375-2.199219-3.582031-.457031-.828125-.960938-1.621093-1.351562-2.484375-.617188-1.460937-1.132813-2.964844-1.542969-4.496094-.15625-.539062-.371094-1.050781-.5-1.597656-.046875-.21875-.144531-.417968-.191407-.636718-2.871093-13.027344 2.167969-26.53125 12.871094-34.488282 2.144532-1.617187 3.402344-4.144531 3.398438-6.824218v-85.332032c.011718-9.421875 7.644531-17.058594 17.066406-17.070312l136.535156-.011719zm0 0" fill="#bababa" data-original="#000000" style="" class=""/></g></svg>
